<svg width="191" height="36" viewBox="0 0 191 36" fill="none" xmlns="http://www.w3.org/2000/svg">
<g clip-path="url(#clip0_102_309)">
<path d="M15.6793 3.32C19.4553 3.32 22.3833 4.216 24.4633 6.008C26.5753 7.768 27.6313 10.12 27.6313 13.064C27.6313 16.296 26.5913 18.76 24.5113 20.456C22.4313 22.152 19.5033 23 15.7273 23L14.9593 23.432H8.67131V35H0.559315V3.32H15.6793ZM14.5273 17.576C16.1273 17.576 17.3273 17.256 18.1273 16.616C18.9273 15.976 19.3273 14.952 19.3273 13.544C19.3273 12.168 18.9273 11.16 18.1273 10.52C17.3273 9.88 16.1273 9.56 14.5273 9.56H8.67131V17.576H14.5273ZM19.3753 19.304L29.5033 35H20.3833L12.2713 21.128L19.3753 19.304ZM43.5009 35.48C40.8449 35.48 38.5409 34.984 36.5889 33.992C34.6689 33 33.1809 31.576 32.1249 29.72C31.0689 27.864 30.5409 25.624 30.5409 23C30.5409 20.376 31.0689 18.136 32.1249 16.28C33.1809 14.424 34.6529 13 36.5409 12.008C38.4609 11.016 40.6529 10.52 43.1169 10.52C45.6449 10.52 47.7889 11.016 49.5489 12.008C51.3409 12.968 52.7009 14.312 53.6289 16.04C54.5569 17.736 55.0209 19.688 55.0209 21.896C55.0209 22.472 55.0049 23.048 54.9729 23.624C54.9409 24.2 54.8929 24.68 54.8289 25.064H35.8209V20.696H51.2289L47.3409 22.184C47.3409 20.264 46.9889 18.792 46.2849 17.768C45.6129 16.744 44.5569 16.232 43.1169 16.232C42.0929 16.232 41.2129 16.472 40.4769 16.952C39.7729 17.432 39.2289 18.184 38.8449 19.208C38.4929 20.232 38.3169 21.544 38.3169 23.144C38.3169 24.712 38.5249 25.992 38.9409 26.984C39.3569 27.944 39.9489 28.648 40.7169 29.096C41.4849 29.512 42.4129 29.72 43.5009 29.72C44.7169 29.72 45.6769 29.48 46.3809 29C47.1169 28.52 47.6609 27.848 48.0129 26.984L54.5409 29.144C54.0929 30.52 53.3089 31.688 52.1889 32.648C51.1009 33.576 49.7889 34.28 48.2529 34.76C46.7489 35.24 45.1649 35.48 43.5009 35.48ZM62.9458 10.52C64.4498 10.52 65.6178 10.904 66.4498 11.672C67.3138 12.44 67.7458 13.512 67.7458 14.888C67.7458 16.232 67.3138 17.288 66.4498 18.056C65.6178 18.824 64.4498 19.208 62.9458 19.208C61.4738 19.208 60.3058 18.824 59.4418 18.056C58.5778 17.288 58.1458 16.232 58.1458 14.888C58.1458 13.512 58.5778 12.44 59.4418 11.672C60.3058 10.904 61.4738 10.52 62.9458 10.52ZM62.9458 26.744C64.4498 26.744 65.6178 27.128 66.4498 27.896C67.3138 28.664 67.7458 29.736 67.7458 31.112C67.7458 32.456 67.3138 33.512 66.4498 34.28C65.6178 35.048 64.4498 35.432 62.9458 35.432C61.4738 35.432 60.3058 35.048 59.4418 34.28C58.5778 33.512 58.1458 32.456 58.1458 31.112C58.1458 29.736 58.5778 28.664 59.4418 27.896C60.3058 27.128 61.4738 26.744 62.9458 26.744Z" fill="black"/>
<path d="M82.2302 35.48C79.8302 35.48 77.5902 35.096 75.5102 34.328C73.4622 33.528 71.7662 32.392 70.4222 30.92L74.2622 26.408C75.0622 27.432 76.1182 28.296 77.4302 29C78.7742 29.672 80.2622 30.008 81.8942 30.008C82.8862 30.008 83.7022 29.864 84.3422 29.576C84.9822 29.288 85.3022 28.84 85.3022 28.232C85.3022 27.784 85.1422 27.432 84.8222 27.176C84.5022 26.888 83.8622 26.648 82.9022 26.456L79.5422 25.784C76.5342 25.176 74.3902 24.28 73.1102 23.096C71.8622 21.88 71.2382 20.296 71.2382 18.344C71.2382 17.032 71.6382 15.784 72.4382 14.6C73.2382 13.384 74.4702 12.408 76.1342 11.672C77.7982 10.904 79.9262 10.52 82.5182 10.52C84.9502 10.52 87.0942 10.872 88.9502 11.576C90.8062 12.28 92.2782 13.304 93.3662 14.648L89.4782 19.064C88.7102 18.104 87.7182 17.352 86.5022 16.808C85.2862 16.264 84.0702 15.992 82.8542 15.992C82.0862 15.992 81.4302 16.072 80.8862 16.232C80.3742 16.36 79.9902 16.552 79.7342 16.808C79.4782 17.064 79.3502 17.384 79.3502 17.768C79.3502 18.184 79.5422 18.552 79.9262 18.872C80.3422 19.16 81.0942 19.416 82.1822 19.64L86.5502 20.504C89.0142 20.952 90.7902 21.768 91.8782 22.952C92.9662 24.136 93.5102 25.56 93.5102 27.224C93.5102 28.792 93.0942 30.2 92.2622 31.448C91.4302 32.696 90.1822 33.688 88.5182 34.424C86.8542 35.128 84.7582 35.48 82.2302 35.48ZM123.136 11L111.616 23.288L110.08 23.72L103.216 31.4L103.168 23.048L114.064 11H123.136ZM104.944 0.823997V35H96.7839V0.823997H104.944ZM112.864 18.2L123.664 35H114.64L107.536 23L112.864 18.2ZM138.888 19.784C138.888 18.664 138.568 17.784 137.928 17.144C137.32 16.472 136.488 16.136 135.432 16.136C134.376 16.136 133.464 16.408 132.696 16.952C131.96 17.464 131.448 18.392 131.16 19.736L124.248 18.104C124.696 15.8 125.88 13.96 127.8 12.584C129.72 11.208 132.424 10.52 135.912 10.52C138.248 10.52 140.232 10.872 141.864 11.576C143.528 12.248 144.792 13.272 145.656 14.648C146.552 15.992 147 17.656 147 19.64V28.424C147 29.672 147.56 30.296 148.68 30.296C149.256 30.296 149.72 30.232 150.072 30.104L149.592 34.76C148.632 35.208 147.464 35.432 146.088 35.432C144.84 35.432 143.736 35.24 142.776 34.856C141.816 34.44 141.064 33.832 140.52 33.032C139.976 32.2 139.704 31.16 139.704 29.912V29.624L140.616 29.288C140.616 30.664 140.2 31.816 139.368 32.744C138.568 33.672 137.512 34.36 136.2 34.808C134.92 35.256 133.576 35.48 132.168 35.48C130.536 35.48 129.112 35.224 127.896 34.712C126.68 34.2 125.736 33.464 125.064 32.504C124.424 31.512 124.104 30.296 124.104 28.856C124.104 27.128 124.616 25.704 125.64 24.584C126.696 23.432 128.344 22.632 130.584 22.184L139.656 20.312L139.608 24.632L135 25.592C134.04 25.784 133.32 26.072 132.84 26.456C132.392 26.808 132.168 27.352 132.168 28.088C132.168 28.792 132.424 29.32 132.936 29.672C133.448 30.024 134.056 30.2 134.76 30.2C135.304 30.2 135.816 30.12 136.296 29.96C136.808 29.8 137.256 29.56 137.64 29.24C138.024 28.888 138.328 28.456 138.552 27.944C138.776 27.432 138.888 26.824 138.888 26.12V19.784ZM160.397 0.823997V26.84C160.397 27.896 160.573 28.648 160.925 29.096C161.277 29.544 161.869 29.768 162.701 29.768C163.181 29.768 163.581 29.736 163.901 29.672C164.221 29.608 164.605 29.512 165.053 29.384L164.525 34.28C163.949 34.632 163.197 34.92 162.269 35.144C161.341 35.368 160.429 35.48 159.533 35.48C156.973 35.48 155.117 34.888 153.965 33.704C152.813 32.52 152.237 30.584 152.237 27.896V0.823997H160.397ZM178.788 35.48C176.132 35.48 173.828 34.984 171.876 33.992C169.956 33 168.468 31.576 167.412 29.72C166.356 27.864 165.828 25.624 165.828 23C165.828 20.376 166.356 18.136 167.412 16.28C168.468 14.424 169.94 13 171.828 12.008C173.748 11.016 175.94 10.52 178.404 10.52C180.932 10.52 183.076 11.016 184.836 12.008C186.628 12.968 187.988 14.312 188.916 16.04C189.844 17.736 190.308 19.688 190.308 21.896C190.308 22.472 190.292 23.048 190.26 23.624C190.228 24.2 190.18 24.68 190.116 25.064H171.108V20.696H186.516L182.628 22.184C182.628 20.264 182.276 18.792 181.572 17.768C180.9 16.744 179.844 16.232 178.404 16.232C177.38 16.232 176.5 16.472 175.764 16.952C175.06 17.432 174.516 18.184 174.132 19.208C173.78 20.232 173.604 21.544 173.604 23.144C173.604 24.712 173.812 25.992 174.228 26.984C174.644 27.944 175.236 28.648 176.004 29.096C176.772 29.512 177.7 29.72 178.788 29.72C180.004 29.72 180.964 29.48 181.668 29C182.404 28.52 182.948 27.848 183.3 26.984L189.828 29.144C189.38 30.52 188.596 31.688 187.476 32.648C186.388 33.576 185.076 34.28 183.54 34.76C182.036 35.24 180.452 35.48 178.788 35.48Z" fill="#5D5FEF"/>
</g>
<defs>
<clipPath id="clip0_102_309">
<rect width="191" height="36" fill="white"/>
</clipPath>
</defs>
</svg>
